{
   "accessors" : [
      {
         "bufferView" : 0,
         "byteOffset" : 0,
         "componentType" : 5123,
         "count" : 29508,
         "max" : [ 6837 ],
         "min" : [ 0 ],
         "name" : "buffer-0-group-0-mesh-0-indices",
         "type" : "SCALAR"
      },
      {
         "bufferView" : 2,
         "byteOffset" : 0,
         "componentType" : 5126,
         "count" : 6838,
         "max" : [ 2.796517610549927, 0, 0.5016055107116699 ],
         "min" : [ 0, -0.7226991653442383, 0 ],
         "name" : "buffer-0-group-0-mesh-0-position",
         "type" : "VEC3"
      },
      {
         "bufferView" : 2,
         "byteOffset" : 82056,
         "componentType" : 5126,
         "count" : 6838,
         "max" : [ 1, 0.999700129032135, 0.9999862313270569 ],
         "min" : [ -1, -0.9998326897621155, -0.9999487996101379 ],
         "name" : "buffer-0-group-0-mesh-0-normal",
         "type" : "VEC3"
      },
      {
         "bufferView" : 1,
         "byteOffset" : 0,
         "componentType" : 5126,
         "count" : 6838,
         "max" : [ 1.684429526329041, 3.302545547485352 ],
         "min" : [ -3.340898752212524, -0.0463886633515358 ],
         "name" : "buffer-0-group-0-mesh-0-texcoord",
         "type" : "VEC2"
      },
      {
         "bufferView" : 0,
         "byteOffset" : 59016,
         "componentType" : 5123,
         "count" : 315564,
         "max" : [ 65534 ],
         "min" : [ 0 ],
         "name" : "buffer-0-group-1-mesh-0-indices",
         "type" : "SCALAR"
      },
      {
         "bufferView" : 2,
         "byteOffset" : 164112,
         "componentType" : 5126,
         "count" : 65535,
         "max" : [ 2.784519910812378, 0, 0.9991455078125 ],
         "min" : [ 0, -0.695132851600647, 0 ],
         "name" : "buffer-0-group-1-mesh-0-position",
         "type" : "VEC3"
      },
      {
         "bufferView" : 2,
         "byteOffset" : 950532,
         "componentType" : 5126,
         "count" : 65535,
         "max" : [ 1, 1, 1 ],
         "min" : [ -1, -1, -1 ],
         "name" : "buffer-0-group-1-mesh-0-normal",
         "type" : "VEC3"
      },
      {
         "bufferView" : 1,
         "byteOffset" : 54704,
         "componentType" : 5126,
         "count" : 65535,
         "max" : [ 0.4145195782184601, 0.4043239057064056 ],
         "min" : [ -0.2192205637693405, -0.1216368675231934 ],
         "name" : "buffer-0-group-1-mesh-0-texcoord",
         "type" : "VEC2"
      },
      {
         "bufferView" : 0,
         "byteOffset" : 690144,
         "componentType" : 5123,
         "count" : 341838,
         "max" : [ 65533 ],
         "min" : [ 0 ],
         "name" : "buffer-0-group-1-mesh-1-indices",
         "type" : "SCALAR"
      },
      {
         "bufferView" : 2,
         "byteOffset" : 1736952,
         "componentType" : 5126,
         "count" : 65534,
         "max" : [ 2.780515193939209, 0, 0.7766774296760559 ],
         "min" : [ 0, -0.3701763153076172, 0 ],
         "name" : "buffer-0-group-1-mesh-1-position",
         "type" : "VEC3"
      },
      {
         "bufferView" : 2,
         "byteOffset" : 2523360,
         "componentType" : 5126,
         "count" : 65534,
         "max" : [ 0.9999460577964783, 0.9999946355819702, 0.9997882843017578 ],
         "min" : [ -0.9999752044677734, -0.9999987483024597, -0.9999974370002747 ],
         "name" : "buffer-0-group-1-mesh-1-normal",
         "type" : "VEC3"
      },
      {
         "bufferView" : 1,
         "byteOffset" : 578984,
         "componentType" : 5126,
         "count" : 65534,
         "max" : [ 4.844896466238424e-05, 0.04958639293909073 ],
         "min" : [ -0.2257924675941467, -0.1148063763976097 ],
         "name" : "buffer-0-group-1-mesh-1-texcoord",
         "type" : "VEC2"
      },
      {
         "bufferView" : 0,
         "byteOffset" : 1373820,
         "componentType" : 5123,
         "count" : 309975,
         "max" : [ 65533 ],
         "min" : [ 0 ],
         "name" : "buffer-0-group-1-mesh-2-indices",
         "type" : "SCALAR"
      },
      {
         "bufferView" : 2,
         "byteOffset" : 3309768,
         "componentType" : 5126,
         "count" : 65534,
         "max" : [ 2.762152433395386, 0, 0.8016288876533508 ],
         "min" : [ 0, -0.3701763153076172, 0 ],
         "name" : "buffer-0-group-1-mesh-2-position",
         "type" : "VEC3"
      },
      {
         "bufferView" : 2,
         "byteOffset" : 4096176,
         "componentType" : 5126,
         "count" : 65534,
         "max" : [ 0.9999752044677734, 0.9999998807907104, 1 ],
         "min" : [ -1, -1, -1 ],
         "name" : "buffer-0-group-1-mesh-2-normal",
         "type" : "VEC3"
      },
      {
         "bufferView" : 1,
         "byteOffset" : 1103256,
         "componentType" : 5126,
         "count" : 65534,
         "max" : [ 6.862235750304535e-05, 0.04958639293909073 ],
         "min" : [ -0.2257924675941467, -0.1216368675231934 ],
         "name" : "buffer-0-group-1-mesh-2-texcoord",
         "type" : "VEC2"
      },
      {
         "bufferView" : 0,
         "byteOffset" : 1993770,
         "componentType" : 5123,
         "count" : 184065,
         "max" : [ 33448 ],
         "min" : [ 0 ],
         "name" : "buffer-0-group-1-mesh-3-indices",
         "type" : "SCALAR"
      },
      {
         "bufferView" : 2,
         "byteOffset" : 4882584,
         "componentType" : 5126,
         "count" : 33449,
         "max" : [ 2.554655790328979, 0, 0.8016288876533508 ],
         "min" : [ 0, -0.3212005496025085, 0 ],
         "name" : "buffer-0-group-1-mesh-3-position",
         "type" : "VEC3"
      },
      {
         "bufferView" : 2,
         "byteOffset" : 5283972,
         "componentType" : 5126,
         "count" : 33449,
         "max" : [ 1, 0.999990701675415, 1 ],
         "min" : [ -0.9902817606925964, -0.9999875426292419, -0.9961868524551392 ],
         "name" : "buffer-0-group-1-mesh-3-normal",
         "type" : "VEC3"
      },
      {
         "bufferView" : 1,
         "byteOffset" : 1627528,
         "componentType" : 5126,
         "count" : 33449,
         "max" : [ 6.862235750304535e-05, 0.0006106274668127298 ],
         "min" : [ -0.2074297517538071, -0.1216368675231934 ],
         "name" : "buffer-0-group-1-mesh-3-texcoord",
         "type" : "VEC2"
      },
      {
         "bufferView" : 0,
         "byteOffset" : 2361900,
         "componentType" : 5123,
         "count" : 290814,
         "max" : [ 65533 ],
         "min" : [ 0 ],
         "name" : "buffer-0-group-2-mesh-0-indices",
         "type" : "SCALAR"
      },
      {
         "bufferView" : 2,
         "byteOffset" : 5685360,
         "componentType" : 5126,
         "count" : 65534,
         "max" : [ 2.8612060546875, 0, 0.6327445507049561 ],
         "min" : [ 0, -0.6355572938919067, 0 ],
         "name" : "buffer-0-group-2-mesh-0-position",
         "type" : "VEC3"
      },
      {
         "bufferView" : 2,
         "byteOffset" : 6471768,
         "componentType" : 5126,
         "count" : 65534,
         "max" : [ 1, 1, 1 ],
         "min" : [ -1, -1, -1 ],
         "name" : "buffer-0-group-2-mesh-0-normal",
         "type" : "VEC3"
      },
      {
         "bufferView" : 1,
         "byteOffset" : 1895120,
         "componentType" : 5126,
         "count" : 65534,
         "max" : [ 0.0917000025510788, 0.3665338754653931 ],
         "min" : [ -0.2311360985040665, -0.02505704760551453 ],
         "name" : "buffer-0-group-2-mesh-0-texcoord",
         "type" : "VEC2"
      },
      {
         "bufferView" : 0,
         "byteOffset" : 2943528,
         "componentType" : 5123,
         "count" : 299814,
         "max" : [ 63226 ],
         "min" : [ 0 ],
         "name" : "buffer-0-group-2-mesh-1-indices",
         "type" : "SCALAR"
      },
      {
         "bufferView" : 2,
         "byteOffset" : 7258176,
         "componentType" : 5126,
         "count" : 63227,
         "max" : [ 2.920127153396606, 0, 0.6504216194152832 ],
         "min" : [ 0, -0.7617894411087036, 0 ],
         "name" : "buffer-0-group-2-mesh-1-position",
         "type" : "VEC3"
      },
      {
         "bufferView" : 2,
         "byteOffset" : 8016900,
         "componentType" : 5126,
         "count" : 63227,
         "max" : [ 1, 1, 1 ],
         "min" : [ -1, -1, -1 ],
         "name" : "buffer-0-group-2-mesh-1-normal",
         "type" : "VEC3"
      },
      {
         "bufferView" : 1,
         "byteOffset" : 2419392,
         "componentType" : 5126,
         "count" : 63227,
         "max" : [ 0.04616019874811172, 0.2022430300712585 ],
         "min" : [ -0.039974644780159, -0.05450000241398811 ],
         "name" : "buffer-0-group-2-mesh-1-texcoord",
         "type" : "VEC2"
      },
      {
         "bufferView" : 0,
         "byteOffset" : 3543156,
         "componentType" : 5123,
         "count" : 195300,
         "max" : [ 44838 ],
         "min" : [ 0 ],
         "name" : "buffer-0-group-3-mesh-0-indices",
         "type" : "SCALAR"
      },
      {
         "bufferView" : 2,
         "byteOffset" : 8775624,
         "componentType" : 5126,
         "count" : 44839,
         "max" : [ 2.876624584197998, 0, 0.5277809500694275 ],
         "min" : [ 0, -0.7210236191749573, 0 ],
         "name" : "buffer-0-group-3-mesh-0-position",
         "type" : "VEC3"
      },
      {
         "bufferView" : 2,
         "byteOffset" : 9313692,
         "componentType" : 5126,
         "count" : 44839,
         "max" : [ 1, 0.9999989867210388, 1 ],
         "min" : [ -1, -0.9999989867210388, -1 ],
         "name" : "buffer-0-group-3-mesh-0-normal",
         "type" : "VEC3"
      },
      {
         "bufferView" : 1,
         "byteOffset" : 2925208,
         "componentType" : 5126,
         "count" : 44839,
         "max" : [ 0.3375829458236694, 0.04053906723856926 ],
         "min" : [ -0.01028497144579887, -0.02580690756440163 ],
         "name" : "buffer-0-group-3-mesh-0-texcoord",
         "type" : "VEC2"
      },
      {
         "bufferView" : 0,
         "byteOffset" : 3933756,
         "componentType" : 5123,
         "count" : 11262,
         "max" : [ 2392 ],
         "min" : [ 0 ],
         "name" : "buffer-0-group-4-mesh-0-indices",
         "type" : "SCALAR"
      },
      {
         "bufferView" : 2,
         "byteOffset" : 9851760,
         "componentType" : 5126,
         "count" : 2393,
         "max" : [ 2.580133199691772, 0, 0.2572224736213684 ],
         "min" : [ 0, -0.4706088304519653, 0 ],
         "name" : "buffer-0-group-4-mesh-0-position",
         "type" : "VEC3"
      },
      {
         "bufferView" : 2,
         "byteOffset" : 9880476,
         "componentType" : 5126,
         "count" : 2393,
         "max" : [ 1, 1, 1 ],
         "min" : [ -1, -1, -1 ],
         "name" : "buffer-0-group-4-mesh-0-normal",
         "type" : "VEC3"
      },
      {
         "bufferView" : 1,
         "byteOffset" : 3283920,
         "componentType" : 5126,
         "count" : 2393,
         "max" : [ 0.02513349987566471, 0.02512053027749062 ],
         "min" : [ -0.0250842310488224, -0.0250931978225708 ],
         "name" : "buffer-0-group-4-mesh-0-texcoord",
         "type" : "VEC2"
      },
      {
         "bufferView" : 0,
         "byteOffset" : 3956280,
         "componentType" : 5123,
         "count" : 10878,
         "max" : [ 2710 ],
         "min" : [ 0 ],
         "name" : "buffer-0-group-5-mesh-0-indices",
         "type" : "SCALAR"
      },
      {
         "bufferView" : 2,
         "byteOffset" : 9909192,
         "componentType" : 5126,
         "count" : 2711,
         "max" : [ 2.568999767303467, 0, 0.3545524775981903 ],
         "min" : [ 0, -0.4594883024692535, 0 ],
         "name" : "buffer-0-group-5-mesh-0-position",
         "type" : "VEC3"
      },
      {
         "bufferView" : 2,
         "byteOffset" : 9941724,
         "componentType" : 5126,
         "count" : 2711,
         "max" : [ 1, 1, 1 ],
         "min" : [ -1, -1, -1 ],
         "name" : "buffer-0-group-5-mesh-0-normal",
         "type" : "VEC3"
      },
      {
         "bufferView" : 1,
         "byteOffset" : 3303064,
         "componentType" : 5126,
         "count" : 2711,
         "max" : [ 0.01400000043213367, 0.01400000043213367 ],
         "min" : [ -0.01400000043213367, -0.01400000043213367 ],
         "name" : "buffer-0-group-5-mesh-0-texcoord",
         "type" : "VEC2"
      }
   ],
   "asset" : {
      "generator" : "Obj2GltfConverter",
      "version" : "2.0"
   },
   "bufferViews" : [
      {
         "buffer" : 0,
         "byteLength" : 3978036,
         "byteOffset" : 0,
         "byteStride" : 0,
         "name" : "buffer-0-bufferview-ushort",
         "target" : 34963
      },
      {
         "buffer" : 0,
         "byteLength" : 3324752,
         "byteOffset" : 3978040,
         "byteStride" : 8,
         "name" : "buffer-0-bufferview-vec2",
         "target" : 34962
      },
      {
         "buffer" : 0,
         "byteLength" : 9974256,
         "byteOffset" : 7302792,
         "byteStride" : 12,
         "name" : "buffer-0-bufferview-vec3",
         "target" : 34962
      },
      {
         "buffer" : 0,
         "byteLength" : 1,
         "byteOffset" : 0,
         "name" : "buffer-0-bufferview-vec4"
      }
   ],
   "buffers" : [
      {
         "byteLength" : 17277048,
         "name" : "buffer-0",
         "uri" : "efit40.bin"
      }
   ],
   "images" : [
      {
         "mimeType" : "image/png",
         "name" : "mat_m12af8eca8d-image",
         "uri" : "2083b617.png"
      }
   ],
   "materials" : [
      {
         "alphaMode" : "OPAQUE",
         "doubleSided" : true,
         "name" : "mat_m12af8eca8d",
         "pbrMetallicRoughness" : {
            "baseColorFactor" : [ 1, 1, 1, 1 ],
            "baseColorTexture" : {
               "index" : 0,
               "texCoord" : 0
            },
            "metallicFactor" : 0,
            "roughnessFactor" : 0.9124375732201923
         }
      },
      {
         "alphaMode" : "OPAQUE",
         "doubleSided" : true,
         "name" : "mat_white6d39b705",
         "pbrMetallicRoughness" : {
            "baseColorFactor" : [ 1, 1, 1, 1 ],
            "metallicFactor" : 0,
            "roughnessFactor" : 0.9124375732201923
         }
      },
      {
         "alphaMode" : "OPAQUE",
         "doubleSided" : true,
         "name" : "mat_blackpol45b058e1",
         "pbrMetallicRoughness" : {
            "baseColorFactor" : [ 0.25, 0.25, 0.25, 1 ],
            "metallicFactor" : 0,
            "roughnessFactor" : 0.7588986581837454
         }
      },
      {
         "alphaMode" : "OPAQUE",
         "doubleSided" : true,
         "name" : "mat_aluwhite131fa6be",
         "pbrMetallicRoughness" : {
            "baseColorFactor" : [ 1, 1, 1, 1 ],
            "metallicFactor" : 0,
            "roughnessFactor" : 0.9124375732201923
         }
      },
      {
         "alphaMode" : "OPAQUE",
         "doubleSided" : true,
         "name" : "mat_s83766d4f2",
         "pbrMetallicRoughness" : {
            "baseColorFactor" : [ 0.30000001, 0.30000001, 0.30000001, 1 ],
            "metallicFactor" : 0,
            "roughnessFactor" : 0.9124375732201923
         }
      },
      {
         "alphaMode" : "OPAQUE",
         "doubleSided" : true,
         "name" : "mat_chrome313fee04",
         "pbrMetallicRoughness" : {
            "baseColorFactor" : [ 0.68150699, 0.68150699, 0.68150699, 1 ],
            "metallicFactor" : 0,
            "roughnessFactor" : 0.8582186230066646
         }
      }
   ],
   "meshes" : [
      {
         "name" : "buffer-0-mesh-0",
         "primitives" : [
            {
               "attributes" : {
                  "NORMAL" : 2,
                  "POSITION" : 1,
                  "TEXCOORD_0" : 3
               },
               "indices" : 0,
               "material" : 0,
               "mode" : 4
            },
            {
               "attributes" : {
                  "NORMAL" : 6,
                  "POSITION" : 5,
                  "TEXCOORD_0" : 7
               },
               "indices" : 4,
               "material" : 1,
               "mode" : 4
            },
            {
               "attributes" : {
                  "NORMAL" : 10,
                  "POSITION" : 9,
                  "TEXCOORD_0" : 11
               },
               "indices" : 8,
               "material" : 1,
               "mode" : 4
            },
            {
               "attributes" : {
                  "NORMAL" : 14,
                  "POSITION" : 13,
                  "TEXCOORD_0" : 15
               },
               "indices" : 12,
               "material" : 1,
               "mode" : 4
            },
            {
               "attributes" : {
                  "NORMAL" : 18,
                  "POSITION" : 17,
                  "TEXCOORD_0" : 19
               },
               "indices" : 16,
               "material" : 1,
               "mode" : 4
            },
            {
               "attributes" : {
                  "NORMAL" : 22,
                  "POSITION" : 21,
                  "TEXCOORD_0" : 23
               },
               "indices" : 20,
               "material" : 2,
               "mode" : 4
            },
            {
               "attributes" : {
                  "NORMAL" : 26,
                  "POSITION" : 25,
                  "TEXCOORD_0" : 27
               },
               "indices" : 24,
               "material" : 2,
               "mode" : 4
            },
            {
               "attributes" : {
                  "NORMAL" : 30,
                  "POSITION" : 29,
                  "TEXCOORD_0" : 31
               },
               "indices" : 28,
               "material" : 3,
               "mode" : 4
            },
            {
               "attributes" : {
                  "NORMAL" : 34,
                  "POSITION" : 33,
                  "TEXCOORD_0" : 35
               },
               "indices" : 32,
               "material" : 4,
               "mode" : 4
            },
            {
               "attributes" : {
                  "NORMAL" : 38,
                  "POSITION" : 37,
                  "TEXCOORD_0" : 39
               },
               "indices" : 36,
               "material" : 5,
               "mode" : 4
            }
         ]
      }
   ],
   "nodes" : [
      {
         "mesh" : 0,
         "name" : "node-0"
      }
   ],
   "samplers" : [
      {
         "name" : "mat_m12af8eca8d-sampler",
         "wrapS" : 10497,
         "wrapT" : 10497
      }
   ],
   "scenes" : [
      {
         "name" : "scene-0",
         "nodes" : [ 0 ]
      }
   ],
   "textures" : [
      {
         "name" : "mat_m12af8eca8d-texture",
         "sampler" : 0,
         "source" : 0
      }
   ]
}
