{
	"accessors" : 
	[
		{
			"bufferView" : 2,
			"byteOffset" : 0,
			"componentType" : 5126,
			"count" : 9794,
			"max" : 
			[
				1,
				1,
				1,
				1
			],
			"min" : 
			[
				0.006584956776350737,
				0.006584956776350737,
				0.006584956776350737,
				1
			],
			"name" : "accessor_color_m0-PolyPaper22_-547902",
			"type" : "VEC4"
		},
		{
			"bufferView" : 2,
			"byteOffset" : 156704,
			"componentType" : 5126,
			"count" : 588,
			"max" : 
			[
				1,
				1,
				1,
				1
			],
			"min" : 
			[
				1,
				1,
				1,
				1
			],
			"name" : "accessor_color_m1-PolyGem25_-547904",
			"type" : "VEC4"
		},
		{
			"bufferView" : 2,
			"byteOffset" : 166112,
			"componentType" : 5126,
			"count" : 1744,
			"max" : 
			[
				0.3488648533821106,
				0.3488648533821106,
				0.3488648533821106,
				1
			],
			"min" : 
			[
				0.1939721554517746,
				0.08919350802898407,
				0.06190747767686844,
				1
			],
			"name" : "accessor_color_m2-PolyPaper22_-548634",
			"type" : "VEC4"
		},
		{
			"bufferView" : 0,
			"byteOffset" : 0,
			"componentType" : 5123,
			"count" : 13956,
			"max" : 
			[
				9793
			],
			"min" : 
			[
				0
			],
			"name" : "accessor_indices_0_m0-PolyPaper22_-547902",
			"type" : "SCALAR"
		},
		{
			"bufferView" : 0,
			"byteOffset" : 27912,
			"componentType" : 5123,
			"count" : 894,
			"max" : 
			[
				587
			],
			"min" : 
			[
				0
			],
			"name" : "accessor_indices_0_m1-PolyGem25_-547904",
			"type" : "SCALAR"
		},
		{
			"bufferView" : 0,
			"byteOffset" : 29700,
			"componentType" : 5123,
			"count" : 2484,
			"max" : 
			[
				1743
			],
			"min" : 
			[
				0
			],
			"name" : "accessor_indices_0_m2-PolyPaper22_-548634",
			"type" : "SCALAR"
		},
		{
			"bufferView" : 1,
			"byteOffset" : 117528,
			"componentType" : 5126,
			"count" : 9794,
			"max" : 
			[
				1,
				1,
				1
			],
			"min" : 
			[
				-1,
				-1,
				-1
			],
			"name" : "accessor_normal_m0-PolyPaper22_-547902",
			"type" : "VEC3"
		},
		{
			"bufferView" : 1,
			"byteOffset" : 242112,
			"componentType" : 5126,
			"count" : 588,
			"max" : 
			[
				0.9656647,
				1,
				0.9656643
			],
			"min" : 
			[
				-0.9656641,
				-0.7085482,
				-0.965664
			],
			"name" : "accessor_normal_m1-PolyGem25_-547904",
			"type" : "VEC3"
		},
		{
			"bufferView" : 1,
			"byteOffset" : 270096,
			"componentType" : 5126,
			"count" : 1744,
			"max" : 
			[
				1,
				1,
				1
			],
			"min" : 
			[
				-1,
				-1,
				-1
			],
			"name" : "accessor_normal_m2-PolyPaper22_-548634",
			"type" : "VEC3"
		},
		{
			"bufferView" : 1,
			"byteOffset" : 0,
			"componentType" : 5126,
			"count" : 9794,
			"max" : 
			[
				-0.3785812,
				1.614992,
				1.00887
			],
			"min" : 
			[
				-1.362452,
				-3.037324,
				-0.8588991
			],
			"name" : "accessor_position_m0-PolyPaper22_-547902",
			"type" : "VEC3"
		},
		{
			"bufferView" : 1,
			"byteOffset" : 235056,
			"componentType" : 5126,
			"count" : 588,
			"max" : 
			[
				-0.6739171,
				1.435494,
				-0.1654496
			],
			"min" : 
			[
				-1.034041,
				1.024827,
				-0.5255744
			],
			"name" : "accessor_position_m1-PolyGem25_-547904",
			"type" : "VEC3"
		},
		{
			"bufferView" : 1,
			"byteOffset" : 249168,
			"componentType" : 5126,
			"count" : 1744,
			"max" : 
			[
				-0.382472,
				1.612743,
				0.1174968
			],
			"min" : 
			[
				-1.352472,
				-3.037283,
				-0.8525034
			],
			"name" : "accessor_position_m2-PolyPaper22_-548634",
			"type" : "VEC3"
		}
	],
	"asset" : 
	{
		"copyright" : "Unknown",
		"generator" : "glTF 1-to-2 Upgrader for Google Blocks",
		"version" : "2.0"
	},
	"bufferViews" : 
	[
		{
			"buffer" : 0,
			"byteLength" : 34668,
			"byteOffset" : 0,
			"name" : "ushortBufferView",
			"target" : 34963
		},
		{
			"buffer" : 0,
			"byteLength" : 291024,
			"byteOffset" : 34668,
			"byteStride" : 12,
			"name" : "vec3BufferView",
			"target" : 34962
		},
		{
			"buffer" : 0,
			"byteLength" : 194016,
			"byteOffset" : 325692,
			"byteStride" : 16,
			"name" : "vec4BufferView",
			"target" : 34962
		}
	],
	"buffers" : 
	[
		{
			"byteLength" : 519708,
			"name" : "model",
			"uri" : "model.bin"
		}
	],
	"materials" : 
	[
		{
			"alphaMode" : "OPAQUE",
			"doubleSided" : false,
			"name" : "BlocksPaper",
			"pbrMetallicRoughness" : 
			{
				"baseColorFactor" : 
				[
					1,
					1,
					1,
					1
				],
				"metallicFactor" : 0,
				"roughnessFactor" : 0.6
			}
		},
		{
			"alphaMode" : "BLEND",
			"doubleSided" : false,
			"name" : "BlocksGlass",
			"pbrMetallicRoughness" : 
			{
				"baseColorFactor" : 
				[
					0.2,
					0.2,
					1,
					0.3
				],
				"metallicFactor" : 1,
				"roughnessFactor" : 0.4
			}
		},
		{
			"alphaMode" : "OPAQUE",
			"doubleSided" : true,
			"name" : "BlocksGem",
			"pbrMetallicRoughness" : 
			{
				"baseColorFactor" : 
				[
					1,
					0.4,
					1,
					1
				],
				"metallicFactor" : 0,
				"roughnessFactor" : 0.1
			}
		}
	],
	"meshes" : 
	[
		{
			"name" : "mesh_m0-PolyPaper22_-547902",
			"primitives" : 
			[
				{
					"attributes" : 
					{
						"COLOR_0" : 0,
						"NORMAL" : 6,
						"POSITION" : 9
					},
					"indices" : 3,
					"material" : 0,
					"mode" : 4
				}
			]
		},
		{
			"name" : "mesh_m1-PolyGem25_-547904",
			"primitives" : 
			[
				{
					"attributes" : 
					{
						"COLOR_0" : 1,
						"NORMAL" : 7,
						"POSITION" : 10
					},
					"indices" : 4,
					"material" : 2,
					"mode" : 4
				}
			]
		},
		{
			"name" : "mesh_m2-PolyPaper22_-548634",
			"primitives" : 
			[
				{
					"attributes" : 
					{
						"COLOR_0" : 2,
						"NORMAL" : 8,
						"POSITION" : 11
					},
					"indices" : 5,
					"material" : 0,
					"mode" : 4
				}
			]
		}
	],
	"nodes" : 
	[
		{
			"matrix" : 
			[
				1,
				0,
				0,
				0,
				0,
				1,
				0,
				0,
				0,
				0,
				1,
				0,
				0,
				0,
				0,
				1
			],
			"mesh" : 2,
			"name" : "node_MeshObject-2002106560-PolyPaper22"
		},
		{
			"matrix" : 
			[
				1,
				0,
				0,
				0,
				0,
				1,
				0,
				0,
				0,
				0,
				1,
				0,
				0,
				0,
				0,
				1
			],
			"mesh" : 0,
			"name" : "node_MeshObject-417075136-PolyPaper22"
		},
		{
			"matrix" : 
			[
				1,
				0,
				0,
				0,
				0,
				1,
				0,
				0,
				0,
				0,
				1,
				0,
				0,
				0,
				0,
				1
			],
			"mesh" : 1,
			"name" : "node_MeshObject1493485312-PolyGem25"
		}
	],
	"scene" : 0,
	"scenes" : 
	[
		{
			"extras" : {},
			"name" : "defaultScene",
			"nodes" : 
			[
				1,
				2,
				0
			]
		}
	]
}